<?xml version="1.0" encoding="UTF-8"?>
<svg id="Layer_1" data-name="Layer 1" xmlns="http://www.w3.org/2000/svg" viewBox="0 0 755.75 750.03">
  <defs>
    <style>
      .cls-1 {
        fill: #a8dddd;
      }

      .cls-1, .cls-2, .cls-3, .cls-4, .cls-5, .cls-6, .cls-7, .cls-8, .cls-9, .cls-10, .cls-11, .cls-12, .cls-13, .cls-14, .cls-15, .cls-16, .cls-17, .cls-18, .cls-19, .cls-20, .cls-21, .cls-22, .cls-23, .cls-24, .cls-25, .cls-26, .cls-27, .cls-28, .cls-29, .cls-30, .cls-31, .cls-32, .cls-33, .cls-34, .cls-35, .cls-36, .cls-37, .cls-38, .cls-39, .cls-40, .cls-41, .cls-42, .cls-43, .cls-44, .cls-45, .cls-46, .cls-47, .cls-48, .cls-49, .cls-50, .cls-51, .cls-52, .cls-53 {
        stroke-width: 0px;
      }

      .cls-2 {
        fill: #43404a;
      }

      .cls-3 {
        fill: #5a585c;
      }

      .cls-4 {
        fill: #ef6146;
      }

      .cls-5 {
        fill: #44424c;
      }

      .cls-6 {
        fill: #f0b2ad;
      }

      .cls-7 {
        fill: #f5baa8;
      }

      .cls-8 {
        fill: #85b3b6;
      }

      .cls-9 {
        fill: #242d40;
      }

      .cls-10 {
        fill: #dc5843;
      }

      .cls-11 {
        fill: #89b9bc;
      }

      .cls-12 {
        fill: #87b9bd;
      }

      .cls-13 {
        fill: #b8f0ed;
      }

      .cls-14 {
        fill: #bdeeeb;
      }

      .cls-15 {
        fill: #3ba6b7;
      }

      .cls-16 {
        fill: #edc074;
      }

      .cls-17 {
        fill: #5a565b;
      }

      .cls-18 {
        fill: #c45040;
      }

      .cls-19 {
        fill: #262d40;
      }

      .cls-20 {
        fill: #296071;
      }

      .cls-21 {
        fill: #2a6374;
      }

      .cls-22 {
        fill: #6e3d40;
      }

      .cls-23 {
        fill: #87b8c1;
      }

      .cls-24 {
        fill: #7eb1b1;
      }

      .cls-25 {
        fill: #b7f0ec;
      }

      .cls-26 {
        fill: #f1f5f5;
      }

      .cls-27 {
        fill: #b74c3f;
      }

      .cls-28 {
        fill: #8db4a1;
      }

      .cls-29 {
        fill: #88bcbf;
      }

      .cls-30 {
        fill: #f6faf9;
      }

      .cls-31 {
        fill: #5a575c;
      }

      .cls-32 {
        fill: #e55941;
      }

      .cls-33 {
        fill: #e85c43;
      }

      .cls-34 {
        fill: #8bbabd;
      }

      .cls-35 {
        fill: #7db0b0;
      }

      .cls-36 {
        fill: #7cafb1;
      }

      .cls-37 {
        fill: #d5f2f1;
      }

      .cls-38 {
        fill: #262d3f;
      }

      .cls-39 {
        fill: #feedc0;
      }

      .cls-40 {
        fill: #f2f6f6;
      }

      .cls-41 {
        fill: #88b9bc;
      }

      .cls-42 {
        fill: #c4ebeb;
      }

      .cls-43 {
        fill: #723e40;
      }

      .cls-44 {
        fill: #83b6b5;
      }

      .cls-45 {
        fill: #727677;
      }

      .cls-46 {
        fill: #fbf7f3;
      }

      .cls-47 {
        fill: #2a6373;
      }

      .cls-48 {
        fill: #8ab8bd;
      }

      .cls-49 {
        fill: #7db0b1;
      }

      .cls-50 {
        fill: #edc372;
      }

      .cls-51 {
        fill: #fbf9f6;
      }

      .cls-52 {
        fill: #fdd035;
      }

      .cls-53 {
        fill: #fedf86;
      }
    </style>
  </defs>
  <path class="cls-15" d="m84.38,615.58c-18.82-23.89-34.86-49.53-47.96-76.96-15.96-33.41-26.57-68.46-32.16-105.1C.18,406.74-.75,379.8.55,352.87c1.4-28.99,6.79-57.41,15.3-85.21,13.45-43.94,34.32-84.07,62.26-120.46,25.43-33.12,55.42-61.44,90.3-84.6,26.92-17.88,55.53-32.24,86.04-42.85,23.65-8.23,47.96-13.56,72.75-16.96,14.04-1.92,28.18-2.54,42.28-2.74,53.94-.79,105.9,9.01,155.46,30.65,26.96,11.77,52.13,26.57,75.88,43.96,15.63,11.44,30.31,23.97,43.94,37.6,24.72,24.69,45.87,52.21,63.11,82.71,19.49,34.49,33.23,71.09,41.05,109.89,6.48,32.15,8.02,64.77,6.02,97.37-2.33,37.87-10.45,74.65-24.46,110.09-13.19,33.35-30.26,64.43-52.46,92.63-3.08,3.92-6.48,7.59-9.73,11.37-.16.22-.32.44-.48.66-1.95.69-3.85.33-5.8-.12-5.11-1.19-10.19-2.5-15.3-3.65-2.46-.56-5.34-1.01-5.84-4.38,1-2.73,3.61-3.31,5.86-4.23,13.02-5.31,24.16-13.26,33.64-23.6,7.1-7.75,7.05-13.18-.14-20.74-7.26-7.63-14.93-14.63-24.36-19.65-12.14-6.46-19.79-17.6-27.68-28.29-14.33-19.41-21.82-41.74-26.92-65.02-4.13-18.85-7.99-37.76-15.74-55.6-3.75-8.62-8.4-16.63-14.57-23.72-2.07-2.38-3.31-4.85-2.94-8.13,1.29-11.49-1.67-22.14-6.8-32.27-3.55-6.99-6.57-14.19-9.57-21.42-5.91-14.27-6.27-29.24-5.27-44.24.96-14.48,1.13-28.88-.05-43.35-1.36-16.78-3.88-33.33-8.01-49.66-6.85-27.05-18.43-51.85-36.74-72.93-21.3-24.52-47.56-41.88-78.95-51.2-20.69-6.14-41.87-8.28-63.2-6.73-37.81,2.74-71.96,15.22-101.2,40.17-28.34,24.19-45,55.09-53.79,90.76-4.07,16.52-5.94,33.3-7.29,50.26-1.53,19.23.7,38.16,2.08,57.2,1.1,15.24-3.72,29.22-9.8,42.86-4.14,9.28-8.18,18.56-9.5,28.8-.52,4.01-.68,7.95-.11,11.92.4,2.8-.12,5.34-1.94,7.5-11.68,13.83-17.63,30.39-22.61,47.4-5.09,17.4-8.63,35.23-13.97,52.56-6.29,20.42-15.85,39.04-30.15,55.22-7.15,8.08-14.76,15.14-24.25,20.41-9.24,5.13-16.9,12.31-23.2,20.9-3.46,4.72-3.1,9.31-.1,13.9,2.46,3.76,5.34,7.17,8.95,9.98,8.57,6.67,17.5,12.71,27.41,17.23,2.23,1.02,4.69,1.91,5.73,4.52.05,1.58-.94,2.66-2.21,3-6.04,1.66-11.9,4.35-18.42,3.44-.22-.17-.43-.33-.65-.5Z"/>
  <path class="cls-15" d="m638.36,646.91c-12.37,12.39-26.13,23.12-40.35,33.25-41.47,29.53-87.19,49.58-136.84,60.72-18.18,4.08-36.59,6.4-55.16,7.93-18.3,1.51-36.64,1.51-54.88.58-27.74-1.41-55.1-5.81-81.95-13.49-39.92-11.43-76.73-29.22-110.74-52.85-14.47-10.05-28.22-21.1-41.19-33.07-.72-.66-1.23-1.55-1.84-2.33,1.69-2.18,3.99-2.13,6.35-1.65,20.5,4.19,41.18,7.24,61.99,9.24,12.87,1.24,25.73,2.66,38.65,3.5,5.55.36,11.29.04,16.7,2.12,2.1.8,4.25-.26,6.33-.82,13.78,1.08,27.51,3.05,41.4,2.5,3.31,1.27,6.74,1.63,10.28,1.66,42.61.36,85.23.28,127.85.25,7.8,0,15.58-1.04,23.4-.32,3.21.3,6.23-.92,9.29-1.68,13.54.66,26.98-.61,40.41-2.09,2.74.82,5.55,1.05,8.38.75,36.44-3.95,73.04-6.49,109.23-12.55,6.05-1.01,12.01-2.65,18.18-2.87,1.61-.06,3.39-.59,4.51,1.22Z"/>
  <path class="cls-47" d="m245.31,661.66c-6.08,2.38-12.16-.06-18.17-.34-12.87-.59-25.67-2.56-38.52-3.57-22.31-1.75-44.37-5.1-66.31-9.35-2.3-.45-4.56-.81-6.89-.75-8.04-3.05-16.74-3.76-24.76-6.95-5.23-2.08-10.61-3.78-15.3-6.98-6.7-4.58-6.7-9.6.15-13.8,2.8-1.72,5.91-2.91,8.89-4.35,0,0,.05.27.05.27,3.5.28,6.05,2.53,7.59,5.15,6.06,10.35,16.04,11.84,26.54,12.5,18.34,1.16,36.67,2.56,55,3.89,7.27.53,14.57.65,21.85.96,9.78.41,19.47,1.58,29.2,2.27,1.48.61,2.33,1.83,2.74,3.28,2.01,7.16,7.33,10.94,13.7,13.8,1.78.8,4.31,1.09,4.28,3.97Z"/>
  <path class="cls-47" d="m638.36,646.91c-23.94,4.34-48,8.05-72.19,10.56-16.45,1.7-32.89,3.78-49.46,4.28-5.11.15-10.22.85-15.31,1.44-1.44.17-2.65.4-3.24-1.29.39-1.44,1.52-2.2,2.78-2.59,6.23-1.89,12.06-4.43,16.5-9.46.65-.73,1.69-1.01,2.71-1.09,7.3,1.92,14.56-.31,21.84-.32,18.61-.03,37.13-1.77,55.67-3.47,12.56-1.15,24.97-4.09,37.69-3.45,3.53.18,6.61-.9,8.95-3.59,2.54-2.92,6.05-4.69,8.66-7.49,3.3-3.67,6.98-7.01,10.1-10.86,1.31-1.61,3.1-2.42,5.11-2.81,0,0,.11-.44.11-.44,3.57,1.79,7.17,3.46,9.91,6.57,2.72,3.08,2.67,5.86-.22,8.73-4.14,4.12-9.44,6.13-14.71,8.17-8.08,3.12-16.59,4.78-24.9,7.12Z"/>
  <path class="cls-9" d="m519.29,649.72c-4.67,8.17-12.91,10.17-21.14,12.17-13.12,3.2-26.48,2.84-39.83,2.67-6.4-.2-12.82.05-19.18-.9-6.14-.92-11.95-2.76-16.86-6.69-2.76-2.21-4.86-4.97-5.57-8.57-1.29-2.71-2.17-5.53-2.52-8.52-.66-5.61-1-5.95-6.86-5.98-12.61-.07-25.23-.02-37.84-.02-10.12,0-20.25-.07-30.37.03-5.71.06-6.31.61-6.73,6.14-.17,2.19-.75,4.23-1.4,6.28-4.88,14.61-17.09,16.85-30.08,17.88-4.91.39-9.81.31-14.72.36-13.72.35-27.37-.46-40.89-2.9-3.76-1.7-7.76-3.01-11.22-5.19-5.29-3.33-8.6-8.22-8.91-14.74-3.2-3.21-1.6-6.84-.87-10.36,1.05-5.07.84-5.47-4.36-5.51-10.5-.08-21,.27-31.49-.09-23.79-.8-47.5-2.54-70.52-9.18-4.64-1.34-10.02-1.73-12.78-6.81-12.07-5-23.28-11.43-33.38-19.76-.64-.53-1.32-1.02-1.92-1.59-16.34-15.66-12.98-21.41-1.32-33.53,4.88-5.07,10.07-9.86,16.27-13.13,20.23-10.69,32.68-28.45,43.31-47.68,10.58-19.15,14.88-40.5,20.11-61.48,4.47-17.94,9.42-35.72,18.11-52.21,2.65-5.03,5.77-9.74,9.69-13.88,1.27-1.35,2.51-2.6,2.11-4.75-2.39-12.68,1.13-24.39,5.99-35.87,1.04-2.45,2.07-4.91,3.26-7.29,8.94-17.86,10.6-36.52,8.61-56.32-4.06-40.38-.63-80.23,14.1-118.41,20.72-53.7,59.41-88.19,115.01-102.23,55.66-14.06,107.76-5.4,154.03,30.09,31.91,24.48,51.08,57.37,61.05,95.9,8.02,31.02,11.16,62.56,8.21,94.51-1.8,19.49,1.57,37.78,10.35,55.15,7.11,14.06,13.85,28.19,11.01,44.69-.19,1.08.33,1.91,1.05,2.66,13.23,13.8,19.77,31.02,24.54,48.99,4.61,17.35,8.25,34.96,13.03,52.25,7.06,25.56,20.5,47.54,39.19,66.33,2.74,2.76,6.04,4.73,9.41,6.53,9.53,5.09,17.59,11.94,24.81,19.89,8.4,9.25,8.39,14.83-.03,24.23-9.17,10.24-20.4,17.51-32.84,23.09-2.42,1.09-4.95,1.95-7.42,2.91-1.02,2.52-3.09,3.76-5.52,4.64-16.18,5.89-33.07,8.29-50.05,10.35-19.34,2.35-38.76,1.93-58.17,1.97-6.72.02-6.88.19-5.25,6.75.57,2.28.99,4.53.71,6.89-.22,3.83.31,7.95-3.92,10.24Z"/>
  <path class="cls-47" d="m521.35,639.76c-.16-4.2-1.07-8.27-2.73-12.08-1.41-3.21-.49-4.07,2.77-4.04,9.8.11,19.61.16,29.41.02,26.09-.36,51.97-2.55,77.15-9.93,4.6-1.35,9.04-3.22,13.55-4.85,4.99,3.17,10.98,2.86,16.36,4.69,3.4,1.15,7.05,1.54,10.31,3.19-4.19,4.76-8.14,9.75-12.96,13.93-7.23,4.38-15.21,5.14-23.43,5.23-13.61.14-27.12,1.97-40.63,3.36-10.56,1.08-21.15,1.82-31.72,2.34-10.42.51-20.84,1.89-31.32,1.24-2.69-.17-5.42-.05-6.75-3.09Z"/>
  <path class="cls-21" d="m105.16,609.79c22.54,8.83,46.12,11.72,70.1,13.11,16.46.96,32.9.48,49.34.73,3.63.06,4.85.71,3.13,4.48-1.95,4.26-2.63,8.9-2.56,13.61-5.45,2.15-10.95.21-16.23-.41-8.1-.95-16.24-.93-24.32-1.41-19.86-1.17-39.7-2.32-59.52-4.06-5.11-.45-10.25-.71-15.37-1.15-5.82-.5-10.99-2-14.85-6.87-3.29-4.15-6.96-8-10.47-11.99,5.05-2.08,10.4-3.07,15.69-4.26,1.76-.39,3.58-.6,5.04-1.81Z"/>
  <path class="cls-11" d="m156.15,252.28c-.18,1.38-1.03,2.2-2.17,2.59-2.03.7-4.11,1.72-6.18,1.73-3.68.03-6.57.75-7.8,4.64-.14.45-.49,1.02-.89,1.17-7.29,2.82-6.9,9.76-8.51,15.65-.55,1.99-.8,4.66-3.72,4.54-2.51-.1-2.84-2.51-3.49-4.33-.5-1.4-.86-2.88-1.07-4.35-.63-4.34-1.31-8.53-6.38-10.16-.98-.31-1.94-1.44-2.43-2.43-1.82-3.66-4.85-4.58-8.65-4.64-3.14-.05-7.34-.25-7.97-3.69-.69-3.77,3.87-3.92,6.38-4.92,4.43-1.76,7.46-4.07,10.74-8.08,4.33-5.29,8.87-9.97,11.26-16.58.94-2.6,3.23-1.87,4.52.33.75,1.28,1.31,2.71,1.69,4.15,1.02,3.89,1.83,7.79,6.5,9.17.97.29,2.22,1.49,2.37,2.43,1.12,6.91,6.88,7.69,11.97,9.49,1.65.58,3.65,1.01,3.84,3.3Z"/>
  <path class="cls-41" d="m661.07,252.44c-.22,1.64-1.38,2.66-2.83,3.1-2.05.62-4.2.9-6.31,1.33-3.05.63-6.4.73-7.36,4.72-.17.72-.92,1.68-1.57,1.85-7.15,1.9-7.12,8.29-8.73,13.66-.38,1.27-.65,2.65-1.34,3.75-1.51,2.42-3.34,2.64-5.01.11-.53-.81-.87-1.81-1.07-2.78-1.43-6.74-2.66-13.34-9-17.9-2.14-1.53-3.61-3.38-6.54-3.62-3.6-.3-8.69-.7-9.1-4.49-.36-3.31,4.77-3.91,7.8-4.66,3.8-.94,6.27-2.61,7.05-6.59.21-1.06.9-2.58,1.74-2.88,5.86-2.15,7.01-7.32,8.55-12.39.5-1.63,1.17-3.73,3.53-3.64,2.05.08,2.57,1.99,3.15,3.47,1.93,4.86,5.21,8.63,8.29,12.75,4.55,6.07,9.59,9.36,16.3,11.33,1.32.39,2.37,1.23,2.44,2.88Z"/>
  <path class="cls-34" d="m82.1,397.87c5.27.15,10.18,5.5,10.13,11.03-.05,5.79-4.78,10.55-10.45,10.52-5.78-.03-10.73-5.29-10.44-11.1.26-5.38,5.63-10.6,10.76-10.45Z"/>
  <path class="cls-11" d="m74.29,299.59c.09,4.36-2.54,7.04-7.03,7.18-3.89.12-7.6-3.07-7.8-6.7-.2-3.77,3.5-7.36,7.64-7.42,4.5-.06,7.1,2.45,7.19,6.94Z"/>
  <path class="cls-48" d="m697.59,299.95c0,3.85-2.98,6.7-7.05,6.76-3.82.06-6.38-2.84-6.38-7.23,0-4.11,2.69-6.73,6.91-6.71,3.86.02,6.53,2.96,6.53,7.18Z"/>
  <path class="cls-34" d="m612.27,168.39c-.05,3.55-2.87,6.49-6.25,6.15-3.62-.36-5.61-2.59-5.73-6.24-.13-3.71,2.96-6.61,6.63-6.41,3.15.17,5.4,2.9,5.35,6.49Z"/>
  <path class="cls-12" d="m160.36,168.17c-.49,3.51-2.43,5.62-6.24,5.56-3.74-.06-5.31-2.55-5.59-5.82-.29-3.33,3.09-6.4,6.52-6.03,3.56.38,5.11,2.71,5.31,6.29Z"/>
  <path class="cls-29" d="m669.19,404.49c-.05-3.83,1.93-5.53,4.92-5.55,3.07-.02,4.87,2.05,5.02,5.1.16,3.16-1.79,5.23-4.71,5.38-3.34.17-4.92-2.22-5.23-4.93Z"/>
  <path class="cls-23" d="m650.07,405.81c2.78.39,4.19,2.03,4.02,4.75-.18,2.76-1.89,4.26-4.64,4.07-2.72-.19-4.25-1.89-4.14-4.63.12-2.92,2.32-3.73,4.76-4.18Z"/>
  <path class="cls-47" d="m286.2,664.56c6.7-.97,13.41-1.91,20.11-2.92,9.93-1.5,18.7-4.79,22.83-15.08,4.14-1.87,8.57-1.38,12.75-.86,9.77,1.22,19.54.66,29.3.75,13.27.13,26.53,0,39.8.06,2.64.01,5.38-.2,7.37,2.11,5.65,10.99,16.41,12.19,26.84,13.98,4.36.75,8.76,1.31,13.14,1.95-10.18,1.63-20.51,1.77-30.74,1.9-34.72.42-69.47.67-104.18-.1-12.37-.27-24.9.47-37.22-1.8Z"/>
  <path class="cls-47" d="m521.35,639.76c7.03,1.87,14.25,1.36,21.25.61,8.41-.9,16.85-.89,25.25-1.49,14.52-1.03,28.98-2.51,43.45-3.97,3.95-.4,7.98-.89,11.85-.92,10.82-.1,21.47-1.14,32.05-3.3-3.71,3.54-7.42,7.09-11.15,10.61-1.78,1.68-3.91,2.41-6.36,2.4-17.12-.13-33.91,3.34-50.89,4.8-4.62.4-9.28.93-13.86,1.01-11.78.22-23.5,1.74-35.31,1.26-3.94-.16-7.91.56-11.87.93-2.45.23-4.59-.47-6.49-1.97.73-3.31,2.23-6.47,2.06-9.97Z"/>
  <path class="cls-53" d="m339.19,219.09c-12.83-3.8-23.64-11.21-34.23-19.05-1.87-1.38-1.22-2.16-.02-3.43,2.63-2.78,5.11-5.69,7.61-10.13-8.59,4.17-16.29,7.78-23.88,11.6-14.25,7.17-28.74,13.79-43.7,19.34-5.42,2.01-5.53,1.88-5.19-3.83,1.31-22.56,4.94-44.65,14.59-65.3,17.51-37.48,47.79-58.9,87.48-67.29,33.45-7.06,65.85-3.32,96.34,12.93,8.07,4.3,15.84,9.13,22.3,15.74,3.03,17.92-1.11,34.74-8.75,50.7-13.7,28.66-36.58,46.55-66.86,55.46-9.96,2.93-20.15,4.1-30.41,4.69-5.1.29-10.09-1.86-15.27-1.46Z"/>
  <path class="cls-33" d="m227.4,249.53c1.73,10.82,3.08,21.73,5.27,32.46,5.8,28.47,23.92,47.36,48.72,60.47,20.07,10.6,41.91,14.89,64.39,16.32,1.99.13,3.99.23,5.98.46,2.01.23,3.5,1.16,3.54,3.44.13,7.49.29,14.98.33,22.46.01,2.32-.74,4.21-3.6,4.47-21.23,1.95-35.71,14.75-48.84,30.02-9.12,10.61-18.96,20.55-30.45,28.74-13.02,9.28-27.82,13.66-43.37,15.14-26.61,2.54-45.75,15.6-58.36,38.93-6.96,12.89-13.66,25.96-21.93,38.09-9.26,13.58-20.64,24.62-37.62,27.52-12.17,2.08-24.4.65-37.64-.03,3.5-4.84,7.05-7.78,10.69-10.6,2.5-1.94,4.96-4.02,7.72-5.51,26.38-14.2,41.2-38.06,53.03-64.13,7.86-17.34,11.46-36.1,16.07-54.49,4.17-16.63,8.78-33.12,17.13-48.31,5.05-9.18,11.72-15.28,22.95-14.35.48.04.98-.13,1.46-.25.11-.03.17-.23.27-.37-.09-.28-.11-.78-.29-.84-12.22-4.33-14.43-13.17-10.87-26.53,2.92-10.98,8.72-20.88,12.32-31.61.88-2.64,1.84-5.26,3.09-8.83,3.53,6.98,6.59,13.18,11.12,18.43,1.63,1.89,3.25,3.84,5.17,5.39,1.58,1.27,1.36-.24,1.24-1.22,3.64-3.39,3.6-7.45,2.39-11.88-3.95-14.41-6.39-29.13-8.67-43.87-.77-4.95-.76-9.91.57-14.82,1.6-5.9,2.52-6.49,8.19-4.73Z"/>
  <path class="cls-39" d="m251.26,295.8c-6.02-11.15-6.75-23.62-8.83-35.73-1.2-6.98-2.44-14.01-2.03-21.17,1.33-1.93,3.44-2.49,5.51-3.16,13.47-4.36,26.78-9.17,39.26-15.92,6.01-3.25,11.41-2.75,16.77,1.16,10.99,8,23.06,13.98,35.96,18.09,28.08,8.96,55.6,7.52,82.6-4.75,15.33-6.97,28.28-16.67,38.29-30.25.99-1.34,2.13-2.57,3.48-3.56,3.09-2.28,5.61-2.11,7.63,1.17,5.74,9.36,11.43,18.74,18.42,27.25,1.16,1.42,1.81,3.26,1.84,5.11.18,13.12,1.11,26.29-2.25,39.22-4.04,15.5-12.77,27.86-24.73,38.35-13.04,11.43-27.95,19.1-44.62,23.44-7.75,2.02-15.78,2.5-23.72,2.66-17.14.35-34.3.44-51.45.03-28.34-.69-54.37-8.59-77.11-26.04-5.86-4.5-10.48-10.16-15.02-15.9Z"/>
  <path class="cls-27" d="m513.2,185.83c-2.93-11.58-5.23-23.3-9.45-34.56-7.82-20.83-19.66-38.8-36.65-53.27-.37-.31-.61-.78-.91-1.17-1.18-3.38-1.07-6.8-.41-10.26.48-2.51,1.72-4.26,4.4-4.67,4.51,1.35,7.34,5,10.59,7.96,26.38,24,40.97,54.61,48.81,88.76,8.76,38.16,9.36,76.56,1.57,114.95-2.15,10.6-6.04,20.77-11.27,30.34-.37.67-1.06,1.33-.33,2.71,7.98-7.57,13.53-16.63,18.55-26.42,4.2,15.43,13.45,28.48,17.93,43.46,2.66,8.89,3.02,17.81-4.7,25.5,10.71,1.37,15.15,9.4,19.59,17.07,10.01,17.27,14.04,36.59,18.22,55.78,6.04,27.68,13.94,54.6,31.24,77.68,5.49,7.32,11.67,14.11,17.59,21.1,2.42,2.85,5.7,4.56,8.91,6.33,8.66,4.77,16.6,10.51,23.5,17.61.75.78,2.08,1.55,1.32,2.86-.3.52-1.43.77-2.19.8-10.96.32-21.92,2-32.9.1-15.18-2.62-26.34-11.37-35.57-23.13-7.97-10.15-13.89-21.55-19.77-32.93-7.41-14.34-15.96-27.68-29.1-37.53-.62-.79-1.37-1.74-.97-2.66,2.39-5.45,3.22-11.65,7.63-16.15,4.43.17,6.9,3.6,9.78,6.15,4.24,3.73,7.46,8.42,11.06,12.74.18.26.34.52.5.8-.17-.35-.39-.67-.6-1-5.57-6.84-11.06-13.72-18.48-18.76-1.71-1.16-3.67-2.46-3.87-4.96.4-16.25-.96-32.24-6.93-47.56-2.87-7.37-6.81-14.04-12.49-19.64-5-4.93-10.82-6.57-17.79-5.62-15.46,2.12-30.89,4.8-46.62,3.59-5.05-.39-9.88-1.41-14.45-3.56-9.78-4.61-11.45-14.22-3.85-21.9,5.12-5.18,11.55-8.46,17.84-11.81,25.23-13.46,40.56-34.36,47.08-61.94,6.65-28.13,7.99-56.23-.89-84.21-1.11-3.49-2.53-6.87-3.67-10.35-.38-1.17-.81-2.21-2.28-2.23Z"/>
  <path class="cls-10" d="m559.06,456.74c-1.23,4.74-2.95,9.31-5.28,13.61-.79,1.46-1.64,2.83-1.59,4.55-12.76-8.11-27.24-10.33-41.82-12.03-20.66-2.42-37.97-11.6-52.9-25.74-9.08-8.6-17.2-18.11-25.62-27.32-10.2-11.16-22.7-17.78-37.56-19.97-3.24-.48-4.81-1.88-4.81-5.1,0-6.83.07-13.66-.05-20.48-.08-4.55,3.02-4.96,6.32-5.2,16.15-1.14,32.06-3.58,47.52-8.54,23.49-7.53,43.4-20.06,57.45-40.87,8.34-12.36,11.35-26.46,13.48-40.86,3.64-24.53,3.85-49.07.12-73.61-.47-3.1-1.45-6.15-1.12-9.35.32-1.06-.34-2.96.87-3.08,1.94-.2,2.53,1.87,3.06,3.35,3.6,10.02,7.17,20.05,8.62,30.68,4.13,30.31,1.04,59.8-11.14,87.94-8.11,18.73-22.66,31.69-40.26,41.54-6.36,3.56-13.03,6.72-18.24,12.09-6.26,6.45-4.64,14.32,3.61,18.07,6.86,3.11,14.14,3.75,21.43,3.69,13.3-.11,26.44-2.2,39.57-4.2,10.67-1.62,17.73,4.06,23.57,11.94,8.37,11.3,11.74,24.44,13.97,38.03,1.09,6.62.93,13.25.96,19.9,0,2,.08,4.01-1.03,5.82-1.26.99-2.49.61-3.7-.1-11.73-6.86-24.62-10.02-37.95-11.47-20.17-2.2-42.25-12.16-59.95-31.01,10.31,10.28,19.69,19.69,31.99,25.57,9.19,4.39,18.81,6.4,28.87,7.13,13.71.99,27.15,3.13,38.91,11.06,1.43.96,3.59,1.42,2.69,3.96Z"/>
  <path class="cls-13" d="m396.22,618.52c-13.67,0-27.33,0-41,0-5.85-1.72-11.89-.72-17.83-1.22-18.27-1.53-35.9-4.81-53.11-11.78-17.93-7.26-34.63-16.91-52.29-24.6-.61-.27-1.19-.6-1.77-.93-9.19-5.18-10.1-9.4-3.65-17.88,3.63-4.77,7.12-9.61,9.69-15.06,1.6-3.39,3.9-6.16,7.2-8.03,1.78-.45,3.23.43,4.73,1.15,25.52,12.38,52.37,20.3,80.59,23.16,11.39,1.15,22.78,2.49,34.3,2.32,17.48-.25,34.98-.4,52.45.05,12.47.32,23.86,3.6,32,14.39,4.65,6.16,14.02,7.15,21.39,3.07,1.91-1.06,3.71-2.39,5.94-2.39,6.78-.02,13.22-1.16,19.08-4.85,1.27-.8,2.96-1.2,4.24-.11,1.5,1.27,1.11,3.11.43,4.63-3.58,8.05-9.69,13.04-18.49,14.19-3.01.39-5.15,1.39-7.2,3.71-7.02,7.95-16.86,11.01-26.44,14.31-13.21,4.55-27.05,4.88-40.82,5.56-3.15.15-6.31-.4-9.44.33Z"/>
  <path class="cls-25" d="m410.06,491.68c2.55-2.5,4.81-4.99,3.3-9.09-1.45-3.92-4.59-4.97-8.17-5.42-4.29-.53-8.59-1.3-12.88-1.27-3.62.02-5.5-1.54-6.78-4.58-1.48-3.51-2.95-7.04-4.66-10.44-3.32-6.6-10.22-6.93-14-.57-2.19,3.69-3.81,7.73-5.64,11.63-1.25,2.65-3.07,3.95-6.22,3.93-4.31-.02-8.63.42-12.93.88-3.76.4-7.34,1.56-8.66,5.59-1.32,4.04.56,7.07,3.86,9.37,2.18,4.36,6.04,7.45,8.67,11.48,1.17,1.81,2.71,3.38,3.36,5.51q-1.21,10.22,1.22,15.18c-15.14-.14-29.84-2.31-44.4-5.51-10.84-2.38-21.36-5.89-31.77-9.73-2.81-1.04-4.1-1.87-2.34-5.46,4.21-8.57,5.38-18.04,6.5-27.44,1.25-2.61,3.18-4.58,5.5-6.3,13.29-9.86,24.67-21.68,35.49-34.14,10.53-12.13,22.53-22.32,39.18-24.84,36.82-5.58,64.68,10.08,74.62,46.55,2.82,10.34,3.19,21,4.87,31.49,1.1,6.89,2.08,13.79,3.57,20.62.61,2.81,1.95,5.84-.52,8.53-5.8,2.01-11.87,2.89-17.88,3.86-8.8,1.41-17.64,2.66-28.01,3.1,5.48-4.38,2.83-9.29,2.9-13.9,2.91-5.14,6.48-9.86,9.8-14.73.93-1.36,2.19-2.46,2.02-4.3Z"/>
  <path class="cls-22" d="m540.27,610.79c-8.33,0-16.65-.01-24.98,0-2.05,0-4.01-.09-5.35-1.98-1.55-2.19-2.22-3.75,1.11-5.34,9.9-4.74,19.65-9.8,29.39-14.87,8.77-4.56,10.41-11.44,4.85-19.81-8-12.05-15.96-24.14-24.08-36.11-1.56-2.29-1.86-3.87.24-5.99,2.92-2.95,3.61-6.7,2.41-10.65-.53-1.73-.13-2.76,1.23-3.85,7.97-6.37,12.23-15.2,15.88-24.38,2.84-7.13,4.07-7.31,10.34-2.62,8.64,6.47,14.3,15.14,19.42,24.37,7.34,13.22,13.88,26.87,22.8,39.22,16.04,22.19,37.67,31.16,64.56,28.43.16-.02.32-.09.49-.11,2.5-.28,5.84-.59,6.76,1.57.92,2.17-2.23,3.78-3.97,5.09-15.97,11.92-34.41,17.99-53.63,21.82-22.25,4.44-44.81,5.64-67.47,5.19Z"/>
  <path class="cls-43" d="m79.41,578.02c3.93-.47,6.65-.79,9.52-.59,17.93,1.25,34.92-1.53,49.54-12.93,9.87-7.7,16.71-17.93,23.22-28.45,7.45-12.03,13.18-25.05,21.21-36.74,4.2-6.11,9.14-11.4,15.35-15.5,2.86-1.89,4.44-1.89,5.62,1.96,3.11,10.16,7.59,19.6,16.57,26.07,1.51,1.09,1.41,2.36,1.07,3.95-.86,4.02.12,7.64,3,10.58,1.9,1.94,1.62,3.41.12,5.6-8.28,12.08-16.41,24.26-24.47,36.49-5.41,8.22-3.52,15.34,5.35,19.81,9.52,4.79,19.19,9.27,28.79,13.9,1.66.8,4.55.88,3.54,3.75-.79,2.24-1.88,4.79-5.07,4.78-1.33,0-2.67.04-4,.04-20.48-.1-40.97.61-61.41-1.11-25.02-2.1-49.51-6.34-71.83-18.81-5.79-3.23-11.23-6.9-16.12-12.81Z"/>
  <path class="cls-16" d="m251.26,295.8c4.37,2.21,7.17,6.26,10.72,9.41,17.45,15.5,37.77,25.06,60.64,28.33,26.44,3.78,53.1,2.62,79.72,1.4,24.3-1.11,44.58-11.34,62.18-27.31,14.84-13.46,22.76-30.51,23.67-50.6.31-6.81-.02-13.66.09-20.48.05-3.34-.86-6.07-3.18-8.6-6.82-7.4-11.75-16.13-16.58-24.86-1.93-3.48-3.45-3.43-5.64-.51-6.71,8.98-14.09,17.44-23.48,23.6-36.98,24.23-75.81,27.43-116.28,9.4-7.93-3.53-15.57-7.58-22.45-12.91-4.77-3.69-9.33-3.86-14.67-.91-12.43,6.85-25.74,11.69-39.24,15.99-2.08.66-4.16,1.17-6.35,1.14-1.19-4.56-.11-6.85,5.1-8.36,15.53-4.49,30.15-11.41,44.4-18.99,3.71-1.98,6.17-2.06,9.75.66,31.46,23.86,66.38,32.25,104.88,21.61,24.07-6.65,42.76-21.02,56.29-42.06,1.5-2.34,2.54-5.03,5.1-7.26,4.19,7.01,8.21,13.87,12.37,20.64,2,3.26,4.06,6.52,6.45,9.48,5.31,6.57,11.26,6.03,15.61-1.14.63-1.04.65-2.62,2.67-3.15.28,4.53.7,8.93.8,13.33.47,19.89-.89,39.68-5.75,58.99-6.31,25.09-23.79,40.58-46.4,50.93-18.42,8.43-38.12,11.56-58.19,12.53-26.84,1.3-53.61,1.22-79.92-5.38-19.6-4.92-37.08-13.7-51.13-28.55-4.59-4.85-8.56-10.17-11.17-16.4Z"/>
  <path class="cls-45" d="m354.11,530.89c9.63-.06,19.25-.09,28.88-.19,27.54-.29,54.4-4.63,80.47-13.61,1.56-.54,3.16-.97,4.75-1.45,4.16-.11,4.88,2.81,5.03,5.97.49,9.99-3.36,17.76-12.03,22.98-17.98,5.68-36.46,8.54-55.21,10.22-16.46,1.47-32.94,1.31-49.37.79-43.54-1.38-85.28-10.41-123.99-31.18-1.45-.78-2.95-1.66-4.05-2.84-2.21-2.39-.91-6.71,2.18-6.8,7.63-.21,13.72-3.66,19.25-8.39,2.44-2.08,4.63-2.06,7.23-.45,19.04,11.76,40.28,16.96,61.99,20.76,5.37.94,10.75,1.89,16.12,2.84-.2.67-.63,1.16-1.21,1.51-1.47.91-3.9,1.17-3.28,3.67.65,2.63,3.12,2.69,5.26,2.83,3.31.21,6.64.1,9.96.09q7.18-.03,8.05-6.74Z"/>
  <path class="cls-49" d="m396.22,618.52c10.52-1.31,21.12-1.9,31.58-3.78,12.67-2.27,24.9-5.74,36.31-11.86,4.26-2.29,6.53-6.72,10.05-9.3,3.38-2.48,9.06-.87,13.2-3.43,5.14-3.18,8.71-7.56,10.97-14.28-3.33,1.86-5.79,3.86-8.6,4.69-8.73,2.6-17.79,3.46-26.55,6.64-7.12,2.58-14.79-.39-19.26-7.91-2.13-3.58-5.6-5.7-9.32-7.22-6.49-2.66-13.19-4.44-20.31-4.4-17.31.08-34.62.31-51.92,0-40.81-.72-80.34-7.26-116.85-26.84-.73-.39-1.53-.63-2.29-.94-3.46,1.51-5.57.1-6.84-3.15.99-2.76,2.49-3.28,5.27-1.91,30.23,14.94,62.48,22.03,95.87,25.09,34.69,3.18,69.15,1.99,103.4-4.27,21.52-3.93,42.14-10.8,61.79-20.4,3.8-1.85,5.37-1,7.35,2.37,6.59,11.17,13.72,22.01,21.17,32.64,4.05,5.78,3.79,7.1-2.31,10.29-18.12,9.47-36.18,19.07-54.84,27.43-15.84,7.09-32.51,10.62-49.89,10.65-9.32.02-18.64-.08-27.96-.12Z"/>
  <path class="cls-4" d="m227.4,249.53c-1.04,6.57-3.1-.44-4.52.31-4.2,9.01-2.67,18.24-.88,27.31,2.47,12.5,4.18,25.17,7.95,37.4.73,2.37.6,4.96,0,7.4-.64,2.64-2.08,4.16-5.04,2.87-7.05-9.76-10.43-21.21-12.25-32.64-7.31-45.76-8.25-91.51,6.7-136.11,18.11-54.01,55.24-88.19,110.39-102.68,3.03-.8,6.17-1.16,9.26-1.72,1.91-.55,3.45-.48,1.72,1.91-1.15,1.6-3.32,2.1-4.87,3.31-1.24.97-3.28,1.59-3.03,3.54.25,2,2.34,1.97,3.84,2.53,2.35.89,5.35,1.08,5.53,4.6-26.1,5.16-49.82,15.36-69.63,33.47-22.59,20.64-34.74,47.01-41.32,76.41-4.5,20.13-5.34,40.49-4.85,60.99.13.3.34.65.26.92q-1.1,3.63.44,6.37c.1,1.27.19,2.53.29,3.8Z"/>
  <path class="cls-35" d="m441.23,517.65c-4.91-19.69-5.17-40.18-10.05-59.83-6.16-24.77-21.14-41.42-47.1-45.48-20.81-3.25-40.01.74-55.54,16.54-10.48,10.66-19.67,22.53-31.07,32.36-6.06,5.22-12.33,10.07-18.95,14.51.28-2.13.67-4.26.83-6.4.53-7.34,2.76-13.15,9.38-17.91,11.93-8.57,20.97-20.36,30.93-31.07,13.03-14.02,28.53-20.66,47.79-17.84,3.58.52,7.34.4,10.96,0,19.22-2.13,34.86,4.51,47.5,18.86,11.55,13.1,22.83,26.48,37.17,36.75,1.45,1.04,2,2.42,2.26,4.21,1.15,8.05,2.46,16.08,3.73,24.12.89,5.61,2.53,11.01,5.08,16.07,1.1,2.17,1.17,3.48-1.35,4.64-10.14,4.66-20.66,8.12-31.56,10.45Z"/>
  <path class="cls-50" d="m339.19,219.09c2.4-2.31,5.44-1.47,8.09-1.22,12.58,1.21,24.71-.95,36.82-4.04,38.59-9.84,68.21-42.62,74.33-82.09.85-5.5.6-10.93.84-16.4.08-1.94-.5-4.05,1.21-5.65,11.5,8.83,19.03,20.75,25.44,33.4,6.03,11.9,9.91,24.57,12.57,37.67,1.33,6.53.57,12.53-2.41,18.34-.7,1.37-.8,3.64-2.91,3.58-1.61-.05-2.22-1.85-2.96-3.1-5.94-10-11.6-20.15-16.76-30.58-.88-1.78-1.6-3.66-2.6-5.38-1.29-2.21-2-5.16-5.5-4.97-3.35.19-4.22,2.88-5.22,5.31-6.26,15.25-14.45,29.15-27.18,40.04-17.94,15.34-38.84,21.83-62.19,21.14-10.84-.32-21.46-1.9-31.58-6.05Z"/>
  <path class="cls-32" d="m342.21,67.56c-2.38-1.97-5.24-2.55-8.19-3.14-1.91-.38-3.99-1.31-4.23-3.61-.21-1.98,1.25-3.26,2.87-4.27,2.36-1.46,4.45-3.42,7.29-4.03.02,0,.03-.38-.05-.43-.27-.17-.58-.28-.88-.41,10.14-2.95,20.62-3.41,31.02-3.45,33.52-.1,64.69,8.18,92.5,27.48,2.69,1.86,5.1,4.12,7.64,6.2-3.24,2.8-2.36,6.77-2.89,10.32-.24,1.58.18,3.28-1.09,4.6-17.97-14.26-38.05-24.04-60.63-28.52-20.24-4.02-40.53-4.37-60.88-.92-.81.14-1.64.11-2.47.17Z"/>
  <path class="cls-31" d="m316.29,640.7c-.64,3.43-3.25,4.96-6.15,5.86-13.26,4.15-26.84,5.49-40.7,4.45-7.45-.56-14.84-1.28-22.06-3.31-8.65-2.43-10.67-6.21-7.72-14.77,2.51-7.27,6.64-13.71,10.64-20.21,1.5-.71,2.85-.34,4.28.35,12.24,5.95,25.3,10.09,37.11,17.05,6.25,3.68,13.5,4.53,20.6,5.53,2.88.41,5.43,1.15,3.99,5.03Z"/>
  <path class="cls-17" d="m498.27,616.65c4.04,5.73,7.31,11.86,9.32,18.6,1.88,6.29.25,10.23-5.95,12.02-12.65,3.65-25.65,5.09-38.82,4.02-8.08-.65-16.15-1.54-24-3.71-6.35-1.76-8.1-3.84-8.54-9.88,2.22-2.93,5.71-2.59,8.68-2.88,8.08-.78,15.45-3.16,22.66-6.98,9.68-5.14,20.32-8.11,30.52-12.09,2.17-.85,4.25-.46,6.15.9Z"/>
  <path class="cls-52" d="m407.5,484.27c-3.62,4.68-8.3,6.75-12.32,9.44-5.2,3.47-7.09,7.43-5.05,13.41.96,2.81,1.41,5.8,1.93,8.74.16.9.12,2.24-.42,2.79-.97.98-2.22.15-3.1-.54-3.14-2.45-6.22-4.99-9.3-7.52-4.15-3.41-8.15-3.94-12.33.11-2.5,2.42-5.36,4.47-8.09,6.64-.89.71-1.89,1.62-3.12.99-1.48-.74-1.28-2.2-1.04-3.52.72-3.91,2.58-7.51,2.85-11.57.23-3.47-.62-6.1-3.71-8.02-3.67-2.27-7.22-4.74-10.74-7.22-1.38-.97-4.02-1.44-3.25-3.72.52-1.54,2.75-1.45,4.43-1.56,4.64-.28,9.28-.85,13.92-.91,4.23-.05,6.85-1.89,8.39-5.72,1.3-3.23,2.74-6.42,4.23-9.57.68-1.43.82-3.76,2.79-3.73,2.17.03,2.4,2.46,3.11,4.05,1.35,3.03,2.52,6.13,3.81,9.19,1.65,3.92,4.45,5.73,8.88,5.87,5.78.18,11.59.67,18.14,2.36Z"/>
  <path class="cls-20" d="m418.35,648.63c-23.21.02-46.42.39-69.61-.18-6.47-.16-13.24.33-19.61-1.89.39-3.63,1.47-7.17,1.25-10.88-.18-3.05,1.61-3.98,4.42-3.98,25.82.03,51.65,0,77.47-.02,2.25,0,4.11.4,3.92,3.2-.33,4.76,1.4,9.17,2.16,13.75Z"/>
  <path class="cls-37" d="m236.38,536.74c2.28,1.05,4.56,2.1,6.84,3.15-5.1,7.33-8.57,15.65-14.22,22.67-7.39,9.19-6.87,11.07,3.91,16.41,12.21,6.05,24.46,12.02,36.76,17.88,15.32,7.3,31.08,13.63,47.9,16.25,10.45,1.63,20.93,3.63,31.61,3.58,2.22-.01,4.33.21,6.04,1.83-7.66,0-15.31,0-22.97-.01-5.46-.94-11,.33-16.46-.69-16.4-.35-31.51-5.72-46.12-12.44-17.32-7.95-34.37-16.49-51.53-24.8-7.17-3.47-7.53-5.03-3.16-11.57,7.17-10.73,14.27-21.52,21.39-32.28Z"/>
  <path class="cls-3" d="m461.21,544.59c1.91-2.65,3.8-5.32,5.72-7.96,3.32-4.56,4.69-9.64,4.37-15.28-.14-2.51-.8-4.48-3.09-5.71,6.8-3.75,14.28-6.24,20.41-11.3,2.05-1.69,4.5-.25,6.4,1.22,5.95,4.59,11.84,9.16,19.87,9.45,1.88.07,2.75,1.84,3.04,3.53.38,2.19-1.18,3.37-2.87,4.19-7.77,3.78-15.42,7.85-23.4,11.13-9.95,4.09-19.71,8.85-30.45,10.74Z"/>
  <path class="cls-1" d="m527.27,477.82c2.37,2.13.2,4.29-.2,6.26-1.3,6.39-3.57,12.39-8.61,16.97-5.04,4.58-9.27,4.74-14.48.33-1.77-1.5-3.35-3.22-5.13-4.71-3.03-2.54-6.37-3.92-10.52-3.32-6.78.98-8.97-.95-9.46-7.85-.21-3.02.13-5.96,1.65-8.67,5.03-3.75,9.13-.75,13.09,1.99,3.69,2.55,7.14,5.39,11.54,6.73,3.58,1.09,6.84.93,9.81-1.58,3.6-3.04,7.75-5.02,12.31-6.15Z"/>
  <path class="cls-36" d="m217.39,480.76c-1.81-4.51,1.96-3.65,4-3.86,9.58-.97,19.15-1.9,28.54-4.16,1.45-.35,2.9-.71,4.33-1.13,6.29-1.82,9.69-.3,12.11,5.78,1.71,4.31,1.97,8.85-.25,13.02-1.34,2.53-3.12,5.39-6.95,3.43-3.86-3.35-8.5-4.78-13.36-3.82-6.81,1.34-12.81-.34-18.62-3.5-3.33-1.81-7.13-2.82-9.79-5.75Z"/>
  <path class="cls-14" d="m217.39,480.76c3.9-.18,6.98,1.95,10.2,3.65,5.54,2.93,11.08,4.77,17.66,3.54,7.24-1.35,12.03,1.14,13.92,5.88-6.52-2.02-11.43.49-15.99,5.11-7.1,7.19-13.09,6.7-19.45-1.25-3.94-4.93-5.75-10.72-6.33-16.93Z"/>
  <path class="cls-42" d="m380.32,374.96c0,2.99.06,5.98-.01,8.96-.13,5.13-2.61,7.57-7.67,7.64-4.98.08-7.53-2.33-7.63-7.58-.12-6.3.01-12.61-.02-18.92-.03-4.91,3.09-6.13,7.18-6.22,4.81-.1,7.65,2.08,8.08,6.15.03.33.02.66.02,1,0,2.99,0,5.97,0,8.96h.05Z"/>
  <path class="cls-24" d="m527.27,477.82c-.08.49-.04,1.34-.27,1.42-6.11,2.12-10.25,8.36-16.67,9.13-6.34.76-11.93-2.71-16.6-6.9-3.86-3.46-8.12-5.04-13.21-4.64,3.52-6.19,4.3-6.49,10.97-4.42,9.6,2.98,19.61,3.17,29.48,4.27,2.14.24,4.33.04,6.31,1.14Z"/>
  <path class="cls-2" d="m498.27,616.65c-11.7,2.47-23.51,5.47-33.56,11.77-10.83,6.79-22.34,8.55-34.44,9.28-1.75-5.08-1.07-6.64,3.16-6.98,17.39-1.37,33.83-6.23,49.65-13.42,2.41-1.1,5.06-1.81,7.26-3.23,3.94-2.56,6.4-1.67,7.94,2.59Z"/>
  <path class="cls-5" d="m316.29,640.7c0-2.44-1.5-2.88-3.6-3.04-10.96-.82-20.93-4.03-30.1-10.54-7.45-5.29-16.7-7.32-24.99-11.15-2.41-1.11-4.86-2.16-7.29-3.24,1.98-3.41,4.26-1.3,6.39-.29,13.24,6.27,26.54,12.37,40.96,15.58,4.23.94,8.51,1.38,12.78,2.01,7.5,1.1,8.43,3.03,5.85,10.66Z"/>
  <path class="cls-30" d="m354.11,530.89c2.33,1.57,2.38,3.71,1.59,6.12-.86,2.6-2.95,2.83-5.19,2.78-5.79-.13-11.59-.04-17.35-.5-4.57-.37-6.46-3.81-4.81-7.68,1.51-3.54,4.75-1.09,6.99-2.06,6.26.45,12.51.9,18.77,1.35Z"/>
  <path class="cls-28" d="m359.72,525.22c4.1-3.07,7.75-5.8,11.4-8.53,1.72-1.29,3.33-1.05,5,.16,3.56,2.59,6.81,5.59,10.56,8.37h-26.96Z"/>
  <path class="cls-8" d="m410.06,491.68c1.08,1.02,1.63,2.44.78,3.58-3.57,4.76-6.12,10.25-10.35,14.52-.53.53-1.49.63-2.24.93q-2.89-7.98,3.49-12.91c2.73-2.1,5.55-4.08,8.33-6.12Z"/>
  <path class="cls-44" d="m349.3,508.71c-6.03-4.23-10.58-9.51-12.02-16.99,2.96,2.11,5.88,4.29,8.9,6.31,5.86,3.91,5.89,3.87,3.12,10.68Z"/>
  <path class="cls-33" d="m227.11,245.72c-.51-.39-1.11-1.18-1.52-1.09-1.43.3-3.27,2.7-3.7-.82-.29-2.39-.27-4.85,3.48-3.98.78.18.85-.79,1.03-1.39,1.05,2.35.85,4.82.7,7.29Z"/>
  <path class="cls-13" d="m315.8,617.82c5.49.06,11.03-.97,16.46.69-5.5.07-11.02.63-16.46-.69Z"/>
  <path class="cls-46" d="m165.28,474.7c13.96-20.77,32.99-33.3,58.16-36.02,23.33-2.53,43.09-12.81,60.47-28.17,2.49-2.2,5-4.37,7.53-6.57.23.39.54.75.48.82-13.85,17.76-29.39,33.28-52.77,37.49-8,1.44-16.2,1.72-24.25,2.92-20.6,3.08-35.98,14.7-48.74,30.42-.86.26-1.34.15-.88-.89Z"/>
  <path class="cls-18" d="m242.34,362.73c-8.83-.14-17.17-2-24.46-7.26-3.12-2.25-5.82-5.16-4-9.23,1.73-3.88,5.52-4.26,9.42-3.7,9.45,1.34,17.75,5.54,25.62,10.57,2.15,1.38,5.32,3.37,3.9,6.75-1.16,2.76-4.34,2.65-6.98,2.86-1.16.09-2.33.02-3.5.02Z"/>
  <path class="cls-7" d="m165.28,474.7c.29.3.59.59.88.89-1.92,2.79-3.84,5.58-5.76,8.37.74-3.63,2.27-6.75,4.88-9.25Z"/>
  <path class="cls-38" d="m475.18,251.34c0,13.65-10.17,24.36-23.11,24.32-12.22-.04-22.8-11.43-22.68-24.41.12-13.13,11.01-24.58,23.29-24.48,12.21.1,22.5,11.33,22.51,24.58Z"/>
  <path class="cls-19" d="m316.36,252.21c0,13.04-10.04,23.51-22.59,23.53-12.72.03-22.64-10.76-22.62-24.62.02-13.22,10.35-24.43,22.5-24.4,12.15.03,22.7,11.88,22.71,25.48Z"/>
  <path class="cls-51" d="m559.06,456.74c-11.9-9.02-25.84-12.14-40.23-12.76-23.77-1.03-42.83-10.87-58.1-28.73-2.78-3.25-5.62-6.45-7.69-10.51,2.14,1.86,4.3,3.7,6.42,5.58,18.3,16.25,39.18,26.57,63.89,28.72,12.63,1.1,24.18,5.75,34.84,12.57,8.36,6.75,16.15,14.04,21.96,23.2.56.98.02.96-.7.76-6.2-6.92-12.02-14.26-20.39-18.82Z"/>
  <path class="cls-6" d="m579.44,475.56c.23-.25.47-.51.7-.76,1.83,1.76,3.2,3.78,4.35,7.2-2.54-2.43-4-4.28-5.05-6.44Z"/>
  <path class="cls-40" d="m446.97,240.44c.28-3.31,2.19-4.91,5.54-4.82,3.43.09,5.2,2.17,5.24,5.34.05,3.31-2.07,5.29-5.31,5.29-3.51,0-5.35-2.14-5.47-5.8Z"/>
  <path class="cls-26" d="m298.53,240.82c.06,3.51-2,5.33-5.14,5.5-3.53.19-5.71-2.13-5.83-5.45-.12-3.51,2.25-5.44,5.75-5.37,3.31.07,5.1,1.98,5.22,5.32Z"/>
</svg>